<?xml version="1.0" encoding="UTF-8" standalone="no"?>
<!-- Created with Inkscape (http://www.inkscape.org/) -->

<svg
   width="144.50403mm"
   height="42.392132mm"
   viewBox="0 0 144.50403 42.392132"
   version="1.1"
   id="svg354"
   inkscape:version="1.2 (dc2aedaf03, 2022-05-15)"
   sodipodi:docname="Qlik Logo.svg"
   xmlns:inkscape="http://www.inkscape.org/namespaces/inkscape"
   xmlns:sodipodi="http://sodipodi.sourceforge.net/DTD/sodipodi-0.dtd"
   xmlns="http://www.w3.org/2000/svg"
   xmlns:svg="http://www.w3.org/2000/svg">
  <sodipodi:namedview
     id="namedview356"
     pagecolor="#ffffff"
     bordercolor="#666666"
     borderopacity="1.0"
     inkscape:showpageshadow="2"
     inkscape:pageopacity="0.0"
     inkscape:pagecheckerboard="0"
     inkscape:deskcolor="#d1d1d1"
     inkscape:document-units="mm"
     showgrid="false"
     inkscape:zoom="1.1893044"
     inkscape:cx="226.18263"
     inkscape:cy="94.593108"
     inkscape:window-width="1920"
     inkscape:window-height="1058"
     inkscape:window-x="1672"
     inkscape:window-y="-8"
     inkscape:window-maximized="1"
     inkscape:current-layer="layer1" />
  <defs
     id="defs351">
    <clipPath
       clipPathUnits="userSpaceOnUse"
       id="clipPath66">
      <path
         d="M 0,0 H 612 V 792 H 0 Z"
         id="path64" />
    </clipPath>
  </defs>
  <g
     inkscape:label="Ebene 1"
     inkscape:groupmode="layer"
     id="layer1"
     transform="translate(-9.3128788,-9.8816871)">
    <g
       id="g62"
       clip-path="url(#clipPath66)"
       transform="matrix(2.3551276,0,0,-2.3551276,-1215.2303,89.95579)">
      <g
         id="g68"
         transform="translate(555.7697,24.4807)">
        <path
           d="M 0,0 C -0.265,0.439 0.091,0.808 0.091,0.808 L 3.215,4.035 C 3.571,4.404 3.058,4.404 3.058,4.404 H 0.141 c -0.513,0 -0.865,-0.373 -0.865,-0.373 l -2.898,-3.07 c -0.352,-0.372 -0.352,0.14 -0.352,0.14 v 6.711 c 0,0.513 -0.512,0.513 -0.512,0.513 h -2.213 c -0.493,0 -0.493,-0.493 -0.493,-0.493 V -6.209 c 0,-0.513 0.513,-0.513 0.513,-0.513 h 2.191 c 0.493,0 0.493,0.493 0.493,0.493 v 2.468 c 0,0.513 0.374,0.864 0.374,0.864 l 1.033,0.97 2.594,-4.355 c 0.262,-0.44 0.775,-0.44 0.775,-0.44 h 2.768 c 0.512,0 0.247,0.439 0.247,0.439 z M -9.494,-6.209 V 3.912 c 0,0.513 -0.513,0.513 -0.513,0.513 h -2.214 c -0.512,0 -0.512,-0.513 -0.512,-0.513 V -6.209 c 0,-0.513 0.512,-0.513 0.512,-0.513 h 2.214 c 0.513,0 0.513,0.513 0.513,0.513 M -9.578,6.389 v 1.449 c 0,0 0,0.494 -0.493,0.494 h -2.169 c 0,0 -0.493,0 -0.493,-0.494 V 6.389 c 0,0 0,-0.493 0.493,-0.493 h 2.169 c 0,0 0.493,0 0.493,0.493 M -15.121,-6.209 V 7.812 c 0,0.513 -0.513,0.513 -0.513,0.513 h -2.257 c -0.513,0 -0.513,-0.513 -0.513,-0.513 V -6.209 c 0,-0.513 0.513,-0.513 0.513,-0.513 h 2.257 c 0.513,0 0.513,0.513 0.513,0.513 m -5.075,0.603 c 0,0 0.287,0.331 -0.043,0.619 l -1.811,1.574 c 0.813,1.202 1.289,2.653 1.289,4.214 0,4.159 -3.372,7.531 -7.531,7.531 -4.159,0 -7.53,-3.372 -7.53,-7.531 0,-4.159 3.371,-7.53 7.53,-7.53 1.523,0 2.937,0.455 4.121,1.231 l 1.987,-1.726 c 0,0 0.331,-0.288 0.618,0.043 z m -3.748,6.407 c 0,-2.401 -1.947,-4.347 -4.348,-4.347 -2.401,0 -4.347,1.946 -4.347,4.347 0,2.401 1.946,4.348 4.347,4.348 2.401,0 4.348,-1.947 4.348,-4.348"
           style="fill:#54565b;fill-opacity:1;fill-rule:nonzero;stroke:none"
           id="path70" />
      </g>
      <g
         id="g72"
         transform="translate(580.8813,18.7189)">
        <path
           d="m 0,0 -2.418,2.029 c 0.843,1.334 1.333,2.914 1.333,4.609 0,4.773 -3.869,8.643 -8.642,8.643 -4.773,0 -8.643,-3.87 -8.643,-8.642 0,-4.773 3.87,-8.643 8.643,-8.643 1.852,0 3.566,0.584 4.973,1.575 l 2.579,-2.164 c 0,0 0.383,-0.321 0.705,0.062 l 1.532,1.826 c 0,0 0.322,0.383 -0.062,0.705 m -4.417,6.638 c 0,-2.933 -2.377,-5.31 -5.31,-5.31 -2.933,0 -5.311,2.377 -5.311,5.311 0,2.932 2.378,5.31 5.311,5.31 2.933,0 5.31,-2.378 5.31,-5.311"
           style="fill:#009c4d;fill-opacity:1;fill-rule:nonzero;stroke:none"
           id="path74" />
      </g>
      <g
         id="g76"
         transform="translate(567.7498,25.3576)">
        <path
           d="M 0,0 C 0,1.88 1.524,3.404 3.404,3.404 5.284,3.404 6.808,1.88 6.808,0 6.808,-1.88 5.284,-3.405 3.404,-3.404 1.524,-3.404 0,-1.88 0,0"
           style="fill:#54565b;fill-opacity:1;fill-rule:nonzero;stroke:none"
           id="path78" />
      </g>
      <g
         id="g80"
         transform="translate(579.4229,31.4499)">
        <path
           d="M 0,0 C 0,0.521 0.425,0.941 0.941,0.941 1.462,0.941 1.882,0.516 1.882,0 1.882,-0.516 1.462,-0.941 0.941,-0.941 0.425,-0.941 0,-0.516 0,0 M 0.941,0.815 C 0.496,0.815 0.151,0.453 0.151,0 c 0,-0.455 0.34,-0.815 0.79,-0.815 0.45,0 0.79,0.36 0.79,0.815 0,0.453 -0.34,0.815 -0.79,0.815 M 0.725,-0.571 H 0.599 v 1.147 h 0.415 c 0.199,0 0.352,-0.1 0.352,-0.317 0,-0.181 -0.098,-0.302 -0.272,-0.319 L 1.417,-0.571 H 1.261 L 0.956,-0.06 H 0.725 Z m 0,0.621 h 0.259 c 0.151,0 0.256,0.033 0.256,0.209 0,0.149 -0.113,0.206 -0.256,0.206 H 0.725 Z"
           style="fill:#54565b;fill-opacity:1;fill-rule:nonzero;stroke:none"
           id="path82" />
      </g>
    </g>
  </g>
</svg>
