<svg version="1.1" id="Layer_1" xmlns:x="ns_extend;" xmlns:i="ns_ai;" xmlns:graph="ns_graphs;" xmlns="http://www.w3.org/2000/svg" xmlns:xlink="http://www.w3.org/1999/xlink" x="0px" y="0px" viewBox="0 0 161 42" style="enable-background:new 0 0 161 42;" xml:space="preserve">
 <style type="text/css">
  .st0{clip-path:url(#SVGID_2_);fill:#3C43B7;}
	.st1{fill:#333333;}
	.st2{fill-rule:evenodd;clip-rule:evenodd;fill:#333333;}
 </style>
 <metadata>
  <sfw xmlns="ns_sfw;">
   <slices>
   </slices>
   <sliceSourceBounds bottomLeftOrigin="true" height="42" width="161" x="85" y="188">
   </sliceSourceBounds>
  </sfw>
 </metadata>
 <g>
  <g>
   <defs>
    <rect id="SVGID_1_" width="161" height="42">
    </rect>
   </defs>
   <clipPath id="SVGID_2_">
    <use href="#SVGID_1_" style="overflow:visible;">
    </use>
   </clipPath>
   <path class="st0" d="M38.3,0H3.7C1.7,0,0,1.7,0,3.7v34.6c0,2,1.7,3.7,3.7,3.7h34.6c2,0,3.7-1.7,3.7-3.7V3.7C42,1.6,40.3,0,38.3,0
			L38.3,0z M25.1,31.4c-4.1,1.9-8.9,0.2-10.8-3.9L6.3,10.9c-0.1-0.1,0-0.3,0.1-0.3c4.1-1.9,8.9-0.2,10.8,3.9l7.9,16.6
			C25.2,31.2,25.2,31.3,25.1,31.4L25.1,31.4z M34.1,17.7h-4v4h-3.9v-4h-4v-3.9h4v-4h3.9v4h4V17.7z M34.1,17.7">
   </path>
  </g>
  <path class="st1" d="M85.1,0.1c-0.7-0.1-1.4,0.2-1.9,0.6c-0.4,0.4-0.6,1-0.6,1.6v0.6c0,0.6,0.2,1.2,0.6,1.6c1.1,0.8,2.6,0.8,3.7,0
		c0.4-0.4,0.6-1,0.6-1.6V2.3c0-0.6-0.2-1.2-0.6-1.6C86.5,0.2,85.8,0,85.1,0.1L85.1,0.1z M68,30.2l2.5-7.9l4.3-11.9h3.9l-8.5,24.1
		h-4.5l0-0.1l-8.4-24h4l4.2,11.9L68,30.2z M83.1,10.4h4v24.1h-4V10.4z M110,13.4L110,13.4L96.5,30.9h14v3.6H91.7v-3.4l0,0L105,14
		H92.1v-3.6H110V13.4z M119.5,0.1h-4v30.4c0,1,0.3,2.1,1,2.9c0.7,0.8,1.7,1.1,3.1,1.1h3.4v-3.6h-3.5V0.1z M129.1,0.2
		c0.3-0.1,0.7-0.2,1-0.1c0.7-0.1,1.4,0.2,1.9,0.6c0.4,0.4,0.6,1,0.6,1.6v0.6c0,0.6-0.2,1.2-0.6,1.6c-1.1,0.8-2.6,0.8-3.7,0
		c-0.4-0.4-0.6-1-0.6-1.6V2.3c0-0.6,0.2-1.2,0.6-1.6C128.5,0.5,128.8,0.3,129.1,0.2L129.1,0.2z M132.1,10.4h-4v24.1h4V10.4z
		 M132.1,10.4">
  </path>
  <path class="st2" d="M156.9,13.3c0.9,1.2,1.6,2.5,2,4l0,0c0.9,3.4,0.9,7,0,10.4c-0.4,1.4-1.1,2.8-2,4c-0.8,1.1-1.9,1.9-3.1,2.5
		c-1.3,0.6-2.7,0.9-4.1,0.9h-0.3c-2.6,0-5-1.1-6.7-3v2.5h-4V0.1h4v12.8c1.3-1.5,3-2.5,4.9-2.9l0.3-0.1l0.3-0.1
		c0.5-0.1,1-0.1,1.5-0.1c1.4,0,2.8,0.3,4.1,0.9C155,11.3,156.1,12.2,156.9,13.3L156.9,13.3z M146.4,31.1c0.8,0.2,1.5,0.3,2.3,0.3h0
		c2,0,3.6-0.6,4.8-1.9c1.2-1.3,1.8-3,1.8-5.1v-4.1c0-2.1-0.6-3.8-1.8-5c-1.2-1.3-2.8-1.9-4.8-1.9c-0.8,0-1.6,0.1-2.3,0.3
		c-0.7,0.2-1.3,0.5-1.9,0.9c-0.5,0.4-0.9,0.8-1.3,1.4c-0.3,0.5-0.5,1.1-0.5,1.7v4.3c-0.1,0.1-0.2,0.2-0.3,0.3
		c0.1,0.1,0.2,0.2,0.3,0.3v4c0,0.7,0.1,1.4,0.5,2c0.3,0.6,0.8,1.1,1.3,1.5C145.1,30.6,145.7,30.9,146.4,31.1L146.4,31.1z
		 M146.4,31.1">
  </path>
 </g>
</svg>